<?xml version="1.0" encoding="iso-8859-1"?>
<!-- Generator: Adobe Illustrator 19.0.0, SVG Export Plug-In . SVG Version: 6.00 Build 0)  -->
<svg version="1.1" id="Capa_1" xmlns="http://www.w3.org/2000/svg" xmlns:xlink="http://www.w3.org/1999/xlink" x="0px" y="0px"
	 viewBox="0 0 496 496" style="enable-background:new 0 0 496 496;" xml:space="preserve">
<g>
	
		<linearGradient id="SVGID_1_" gradientUnits="userSpaceOnUse" x1="-52.2185" y1="562.2896" x2="16.1905" y2="630.7036" gradientTransform="matrix(8 0 0 -8 399 5013)">
		<stop  offset="0" style="stop-color:#AA6100"/>
		<stop  offset="0.093" style="stop-color:#AC6400"/>
		<stop  offset="0.165" style="stop-color:#B26E00"/>
		<stop  offset="0.231" style="stop-color:#BB7E00"/>
		<stop  offset="0.292" style="stop-color:#C99600"/>
		<stop  offset="0.35" style="stop-color:#DBB400"/>
		<stop  offset="0.405" style="stop-color:#F0D800"/>
		<stop  offset="0.439" style="stop-color:#FFF200"/>
		<stop  offset="0.474" style="stop-color:#FFD705"/>
		<stop  offset="0.519" style="stop-color:#FFBB0A"/>
		<stop  offset="0.565" style="stop-color:#FFA80E"/>
		<stop  offset="0.611" style="stop-color:#FF9C10"/>
		<stop  offset="0.658" style="stop-color:#FF9811"/>
		<stop  offset="0.732" style="stop-color:#FF9A12"/>
		<stop  offset="0.758" style="stop-color:#FFA118"/>
		<stop  offset="0.777" style="stop-color:#FFAC21"/>
		<stop  offset="0.793" style="stop-color:#FFBD2E"/>
		<stop  offset="0.806" style="stop-color:#FFD33F"/>
		<stop  offset="0.809" style="stop-color:#FFDA44"/>
		<stop  offset="0.879" style="stop-color:#DDA928"/>
		<stop  offset="0.96" style="stop-color:#B8750B"/>
		<stop  offset="1" style="stop-color:#AA6100"/>
	</linearGradient>
	<path style="fill:url(#SVGID_1_);" d="M248,496C111.033,496,0,384.967,0,248S111.033,0,248,0s248,111.033,248,248
		C495.841,384.901,384.901,495.841,248,496z M248,16C119.87,16,16,119.87,16,248s103.87,232,232,232s232-103.87,232-232
		C479.859,119.928,376.072,16.141,248,16z"/>
	
		<linearGradient id="SVGID_2_" gradientUnits="userSpaceOnUse" x1="-52.2174" y1="562.2884" x2="16.1916" y2="630.7024" gradientTransform="matrix(8 0 0 -8 399 5013)">
		<stop  offset="0" style="stop-color:#AA6100"/>
		<stop  offset="0.093" style="stop-color:#AC6400"/>
		<stop  offset="0.165" style="stop-color:#B26E00"/>
		<stop  offset="0.231" style="stop-color:#BB7E00"/>
		<stop  offset="0.292" style="stop-color:#C99600"/>
		<stop  offset="0.35" style="stop-color:#DBB400"/>
		<stop  offset="0.405" style="stop-color:#F0D800"/>
		<stop  offset="0.439" style="stop-color:#FFF200"/>
		<stop  offset="0.474" style="stop-color:#FFD705"/>
		<stop  offset="0.519" style="stop-color:#FFBB0A"/>
		<stop  offset="0.565" style="stop-color:#FFA80E"/>
		<stop  offset="0.611" style="stop-color:#FF9C10"/>
		<stop  offset="0.658" style="stop-color:#FF9811"/>
		<stop  offset="0.732" style="stop-color:#FF9A12"/>
		<stop  offset="0.758" style="stop-color:#FFA118"/>
		<stop  offset="0.777" style="stop-color:#FFAC21"/>
		<stop  offset="0.793" style="stop-color:#FFBD2E"/>
		<stop  offset="0.806" style="stop-color:#FFD33F"/>
		<stop  offset="0.809" style="stop-color:#FFDA44"/>
		<stop  offset="0.879" style="stop-color:#DDA928"/>
		<stop  offset="0.96" style="stop-color:#B8750B"/>
		<stop  offset="1" style="stop-color:#AA6100"/>
	</linearGradient>
	<path style="fill:url(#SVGID_2_);" d="M248,448c-110.457,0-200-89.543-200-200S137.543,48,248,48s200,89.543,200,200
		C447.877,358.406,358.406,447.877,248,448z M248,64C146.38,64,64,146.38,64,248s82.38,184,184,184s184-82.38,184-184
		C431.885,146.427,349.573,64.115,248,64z"/>
</g>
<linearGradient id="SVGID_3_" gradientUnits="userSpaceOnUse" x1="-53.7129" y1="563.7849" x2="14.6961" y2="632.1979" gradientTransform="matrix(8 0 0 -8 399 5013)">
	<stop  offset="0" style="stop-color:#AA6100"/>
	<stop  offset="0.093" style="stop-color:#AC6400"/>
	<stop  offset="0.165" style="stop-color:#B26E00"/>
	<stop  offset="0.231" style="stop-color:#BB7E00"/>
	<stop  offset="0.292" style="stop-color:#C99600"/>
	<stop  offset="0.35" style="stop-color:#DBB400"/>
	<stop  offset="0.405" style="stop-color:#F0D800"/>
	<stop  offset="0.439" style="stop-color:#FFF200"/>
	<stop  offset="0.474" style="stop-color:#FFD705"/>
	<stop  offset="0.519" style="stop-color:#FFBB0A"/>
	<stop  offset="0.565" style="stop-color:#FFA80E"/>
	<stop  offset="0.611" style="stop-color:#FF9C10"/>
	<stop  offset="0.658" style="stop-color:#FF9811"/>
	<stop  offset="0.732" style="stop-color:#FF9A12"/>
	<stop  offset="0.758" style="stop-color:#FFA118"/>
	<stop  offset="0.777" style="stop-color:#FFAC21"/>
	<stop  offset="0.793" style="stop-color:#FFBD2E"/>
	<stop  offset="0.806" style="stop-color:#FFD33F"/>
	<stop  offset="0.809" style="stop-color:#FFDA44"/>
	<stop  offset="0.879" style="stop-color:#DDA928"/>
	<stop  offset="0.96" style="stop-color:#B8750B"/>
	<stop  offset="1" style="stop-color:#AA6100"/>
</linearGradient>
<path style="fill:url(#SVGID_3_);" d="M200,343.768c-4.418,0-8-3.582-8-8V160.232c-0.001-4.418,3.58-8.001,7.998-8.002
	c1.542,0,3.051,0.445,4.346,1.282l135.768,87.768c3.711,2.397,4.777,7.349,2.379,11.061c-0.615,0.953-1.426,1.764-2.379,2.379
	l-135.768,87.768C203.049,343.324,201.541,343.769,200,343.768z M208,174.968v146.096L321.032,248L208,174.968z"/>
<g>
</g>
<g>
</g>
<g>
</g>
<g>
</g>
<g>
</g>
<g>
</g>
<g>
</g>
<g>
</g>
<g>
</g>
<g>
</g>
<g>
</g>
<g>
</g>
<g>
</g>
<g>
</g>
<g>
</g>
</svg>
